<?xml version="1.0" standalone="no"?>
<!DOCTYPE svg PUBLIC "-//W3C//DTD SVG 20010904//EN"
 "http://www.w3.org/TR/2001/REC-SVG-20010904/DTD/svg10.dtd">
<svg version="1.0" xmlns="http://www.w3.org/2000/svg"
 width="1920.000000pt" height="593.000000pt" viewBox="0 0 1920.000000 593.000000"
 preserveAspectRatio="xMidYMid meet">

<g transform="translate(0.000000,593.000000) scale(0.100000,-0.100000)"
fill="#1C425D" stroke="none">
<path d="M2590 5863 c-456 -9 -1343 -50 -2128 -98 -221 -14 -416 -25 -432 -25
l-30 0 0 -2719 0 -2719 163 -6 c297 -10 1452 -28 2242 -35 1390 -11 2831 12
4290 69 1982 77 2657 65 4110 -75 549 -53 771 -73 990 -90 306 -23 341 -25
615 -35 635 -24 1079 -6 2260 89 333 28 684 55 780 61 96 6 249 15 340 21 279
17 1193 23 1611 10 404 -13 598 -23 1339 -71 250 -17 456 -30 457 -30 2 0 3
1201 3 2670 l0 2670 -30 0 c-16 0 -94 -7 -172 -15 -1307 -138 -2076 -182
-2963 -172 -498 6 -599 11 -1490 67 -808 51 -1027 61 -1480 67 -550 7 -859 -6
-2105 -92 -475 -32 -677 -39 -1170 -39 -489 -1 -570 2 -965 35 -399 32 -926
93 -1695 195 -1221 161 -2149 238 -3200 264 -353 9 -970 10 -1340 3z"/>
</g>
</svg>
