<?xml version="1.0" encoding="UTF-8"?>
<!DOCTYPE svg PUBLIC "-//W3C//DTD SVG 1.1//EN" "http://www.w3.org/Graphics/SVG/1.1/DTD/svg11.dtd">
<svg xmlns="http://www.w3.org/2000/svg" version="1.1" width="1000px" height="974px" style="shape-rendering:geometricPrecision; text-rendering:geometricPrecision; image-rendering:optimizeQuality; fill-rule:evenodd; clip-rule:evenodd" xmlns:xlink="http://www.w3.org/1999/xlink">
<g>
<defs>
    <linearGradient id="grad1" x1="0%" y1="0%" x2="140%" y2="40%">
      <stop offset="0%" style="stop-color:#0E1F2E;stop-opacity:1" />
      <stop offset="60%" style="stop-color:#1C425D;stop-opacity:1" />
      <stop offset="85%" style="stop-color:#3A6B8C;stop-opacity:1" />
      <stop offset="97%" style="stop-color:#5A798F;stop-opacity:1" />
    </linearGradient>
</defs>
<path style="opacity:1" fill="url(#grad1)" d="M -0.5,13.5 C 73.3581,17.9842 146.691,26.8176 219.5,40C 261.063,48.846 302.73,57.1793 344.5,65C 405.138,75.7165 466.138,78.3831 527.5,73C 550.221,71.1946 572.887,68.8613 595.5,66C 633.135,60.7539 670.802,55.7539 708.5,51C 766.758,43.7839 824.758,45.4506 882.5,56C 921.94,63.4439 960.94,72.6105 999.5,83.5C 999.5,362.5 999.5,641.5 999.5,920.5C 939.296,939.384 877.962,953.55 815.5,963C 741.723,971.876 668.723,967.543 596.5,950C 549.329,937.041 501.996,924.707 454.5,913C 410.367,904.11 366.033,902.777 321.5,909C 280.095,915.567 238.762,922.567 197.5,930C 131.822,939.334 65.8217,944.834 -0.5,946.5C -0.5,635.5 -0.5,324.5 -0.5,13.5 Z"/></g>
</svg>
