<?xml version="1.0" standalone="no"?>
<!DOCTYPE svg PUBLIC "-//W3C//DTD SVG 20010904//EN"
 "http://www.w3.org/TR/2001/REC-SVG-20010904/DTD/svg10.dtd">
<svg version="1.0" xmlns="http://www.w3.org/2000/svg"
 width="800.000000pt" height="586.000000pt" viewBox="0 0 800.000000 586.000000"
 preserveAspectRatio="xMidYMid meet">

<g transform="translate(0.000000,586.000000) scale(0.100000,-0.100000)"
fill="#000000" stroke="none">
<path d="M1741 5430 c-108 -23 -171 -92 -171 -190 0 -101 41 -145 199 -209 99
-40 121 -62 121 -121 0 -50 -22 -84 -67 -101 -36 -14 -143 -11 -197 5 -53 16
-58 12 -71 -55 -7 -36 -7 -36 42 -50 27 -8 92 -14 149 -14 92 0 105 3 159 30
82 42 118 99 118 188 0 109 -45 162 -184 217 -105 42 -124 54 -138 89 -15 35
-1 74 33 96 29 19 146 22 190 5 39 -15 43 -13 55 21 19 55 14 67 -26 78 -60
15 -164 21 -212 11z"/>
<path d="M6698 5383 c-27 -4 -28 -7 -28 -58 0 -58 7 -65 65 -65 58 0 65 7 65
66 0 45 -3 54 -17 54 -10 0 -27 2 -38 4 -11 2 -32 1 -47 -1z"/>
<path d="M2922 5230 c-23 -4 -55 -16 -72 -28 -36 -27 -36 -27 -43 -2 -6 22
-46 35 -82 26 l-25 -6 0 -376 0 -376 27 7 c15 3 42 13 60 20 l33 14 0 89 0 90
83 3 c191 9 290 124 274 320 -13 156 -110 239 -255 219z m91 -124 c65 -60 60
-210 -8 -276 -27 -26 -45 -34 -84 -38 -27 -2 -61 -2 -75 2 l-26 6 0 116 c0
129 13 174 59 199 42 23 104 19 134 -9z"/>
<path d="M3463 5230 c-109 -16 -187 -110 -199 -241 -20 -215 140 -339 373
-289 73 16 76 20 63 70 -10 39 -13 42 -38 36 -64 -15 -162 -18 -192 -6 -42 17
-80 65 -80 101 l0 29 173 2 172 3 3 43 c4 56 -22 143 -54 182 -49 57 -130 83
-221 70z m91 -100 c28 -10 66 -64 66 -92 0 -16 -12 -18 -115 -18 -128 0 -135
5 -96 64 34 51 87 68 145 46z"/>
<path d="M4340 5230 c-89 -12 -137 -54 -147 -129 -11 -81 25 -122 144 -167 37
-14 76 -33 86 -41 25 -23 21 -58 -10 -83 -25 -19 -36 -21 -98 -17 -38 3 -80 9
-92 12 -19 6 -23 1 -34 -35 -12 -38 -11 -44 5 -56 24 -17 115 -28 183 -21 115
12 194 95 179 189 -12 74 -41 100 -154 139 -63 22 -92 44 -92 70 0 44 80 62
163 37 35 -11 41 -10 53 7 8 10 14 31 14 47 0 23 -5 29 -37 37 -57 14 -113 18
-163 11z"/>
<path d="M4835 5230 c-102 -16 -173 -88 -196 -198 -41 -201 80 -354 267 -339
141 11 224 110 224 268 0 183 -124 296 -295 269z m99 -104 c86 -36 102 -245
24 -311 -22 -19 -41 -25 -77 -25 -91 0 -126 57 -119 193 2 57 9 83 24 104 38
52 87 65 148 39z"/>
<path d="M6349 5229 c-58 -9 -96 -28 -135 -71 -57 -60 -69 -93 -69 -198 0
-102 12 -138 64 -193 60 -66 181 -93 291 -67 l52 13 -5 39 c-7 52 -17 61 -51
48 -69 -26 -170 -3 -202 44 -54 83 -30 237 44 277 24 13 110 15 162 4 25 -5
30 -3 35 17 14 60 11 71 -20 79 -50 12 -118 15 -166 8z"/>
<path d="M6735 5220 l-50 -17 -3 -251 -2 -252 54 0 c34 0 55 4 57 13 2 6 2
127 -1 268 l-5 256 -50 -17z"/>
<path d="M7615 5221 c-81 -37 -122 -107 -132 -220 -7 -83 17 -182 55 -231 59
-74 163 -100 249 -61 23 11 43 17 46 15 13 -13 -15 -82 -43 -106 -51 -47 -152
-36 -204 21 l-19 21 -29 -27 c-35 -34 -35 -45 2 -76 51 -43 111 -60 194 -55
91 6 149 40 184 108 21 43 22 53 22 332 l0 288 -50 0 c-38 0 -50 -4 -50 -15 0
-19 1 -19 -51 5 -55 25 -122 25 -174 1z m160 -85 c18 -8 39 -24 45 -36 14 -27
15 -241 1 -268 -16 -30 -78 -55 -119 -48 -71 11 -112 78 -112 181 0 141 79
215 185 171z"/>
<path d="M2138 5219 c-16 -9 -18 -28 -18 -158 0 -233 21 -300 109 -343 71 -34
209 -35 324 -2 16 5 17 26 17 254 l0 249 -35 7 c-19 3 -46 3 -60 0 l-25 -6 -2
-213 -3 -212 -60 -3 c-126 -5 -145 29 -145 259 0 164 0 167 -22 173 -33 8 -60
7 -80 -5z"/>
<path d="M3862 5222 c-9 -7 -12 -66 -10 -263 l3 -254 55 0 55 0 5 170 c5 186
10 203 66 230 18 8 48 15 68 15 l36 0 0 49 c0 41 -4 51 -20 56 -30 9 -80 -3
-122 -31 -29 -18 -38 -21 -38 -10 0 36 -63 60 -98 38z"/>
<path d="M5240 5215 c-9 -11 -11 -60 -8 -193 4 -145 8 -183 22 -212 44 -84
112 -120 230 -120 54 0 82 5 174 25 l22 5 0 249 c0 274 3 261 -63 261 -18 0
-38 -4 -44 -8 -9 -6 -13 -65 -15 -217 l-3 -210 -60 -3 c-77 -3 -119 20 -134
75 -6 21 -11 108 -11 194 0 173 1 169 -65 169 -18 0 -38 -7 -45 -15z"/>
<path d="M5827 5218 c-16 -12 -17 -37 -15 -263 l3 -250 58 -3 57 -3 1 148 c0
84 6 165 13 188 14 49 63 85 117 85 33 0 38 3 44 30 8 38 -1 67 -25 75 -26 8
-92 -11 -122 -35 -27 -21 -38 -18 -38 11 0 29 -61 40 -93 17z"/>
<path d="M6941 5216 c-8 -9 -11 -87 -9 -262 l3 -249 58 -3 57 -3 0 156 c0 168
7 201 53 243 35 33 95 40 126 15 31 -25 40 -81 40 -265 l1 -148 55 0 55 0 0
203 c0 193 -1 206 -23 247 -33 62 -74 82 -163 78 -59 -3 -77 -8 -107 -31 -44
-33 -47 -33 -47 -3 0 13 -7 27 -16 30 -27 11 -71 6 -83 -8z"/>
<path d="M431 4901 c-19 -26 -20 -30 -5 -24 13 5 16 3 11 -10 -5 -13 1 -18 32
-23 33 -5 37 -9 33 -30 -3 -19 -1 -23 12 -18 9 3 16 1 16 -5 0 -6 11 -17 25
-23 14 -6 25 -17 25 -25 0 -7 3 -12 8 -12 18 3 32 -2 32 -11 0 -16 33 -45 68
-59 17 -7 37 -26 44 -42 9 -19 18 -27 28 -24 8 4 11 3 7 -1 -4 -4 10 -13 30
-20 38 -13 90 -7 132 17 9 4 70 25 136 45 113 34 158 54 125 54 -8 0 -136 16
-285 36 -289 38 -271 32 -340 99 -6 5 -34 32 -62 58 l-50 49 -22 -31z"/>
<path d="M3062 3618 l3 -122 65 -38 c36 -21 71 -38 78 -38 8 0 45 19 83 41
l69 41 0 119 0 119 -150 0 -151 0 3 -122z m168 62 c0 -5 7 -7 15 -4 22 9 48
-15 35 -31 -7 -9 -8 -15 -1 -19 6 -4 8 -13 5 -20 -3 -8 -1 -17 5 -21 32 -19
-14 -90 -65 -101 -64 -13 -136 58 -120 120 7 28 40 63 71 76 28 12 55 12 55 0z"/>
<path d="M3220 3650 c0 -5 -12 -15 -27 -22 -31 -15 -42 -51 -23 -74 7 -8 28
-13 49 -13 30 2 31 3 9 6 -16 2 -28 7 -28 9 0 3 11 25 24 49 20 35 22 44 10
49 -8 3 -14 1 -14 -4z"/>
<path d="M1452 3613 l3 -117 73 -43 74 -44 74 43 74 43 0 118 0 117 -150 0
-151 0 3 -117z m220 44 c4 -6 2 -17 -4 -24 -7 -9 -7 -13 1 -13 7 0 9 -4 6 -10
-3 -5 2 -21 11 -35 17 -25 16 -27 -16 -60 -40 -41 -78 -45 -127 -15 -57 35
-54 132 6 165 29 17 111 11 123 -8z"/>
<path d="M1614 3647 c-3 -9 -12 -17 -19 -17 -16 0 -45 -33 -45 -52 0 -28 36
-51 67 -42 26 7 27 8 6 11 -26 5 -30 25 -8 43 9 7 13 15 10 18 -3 3 -1 10 5
16 5 7 5 18 0 26 -8 12 -10 12 -16 -3z"/>
<path d="M4652 3613 l3 -117 74 -42 73 -41 74 41 74 41 0 118 0 117 -150 0
-151 0 3 -117z m168 59 c0 -4 12 -8 28 -7 25 0 27 -3 28 -42 0 -23 6 -49 13
-57 11 -13 11 -19 0 -33 -32 -40 -53 -53 -91 -53 -104 0 -135 138 -43 188 23
13 65 16 65 4z"/>
<path d="M4810 3643 c0 -5 -14 -16 -30 -25 -36 -20 -39 -51 -8 -72 28 -20 61
-23 35 -3 -16 11 -16 13 0 36 19 28 27 71 12 71 -5 0 -9 -3 -9 -7z"/>
<path d="M6403 3722 l-143 -3 0 -113 0 -114 72 -42 72 -43 63 34 c36 19 69 39
74 46 9 11 17 230 8 235 -2 2 -68 2 -146 0z m21 -49 c4 -4 17 -8 29 -8 19 0
22 -6 22 -36 0 -20 7 -49 14 -63 13 -24 13 -28 -13 -55 -34 -35 -70 -44 -113
-26 -31 13 -63 59 -63 90 0 56 93 129 124 98z"/>
<path d="M6410 3635 c-7 -8 -18 -15 -26 -15 -7 0 -18 -9 -24 -21 -17 -30 11
-69 48 -68 17 1 20 3 10 6 -22 5 -23 26 -4 42 16 13 27 59 16 66 -4 3 -13 -2
-20 -10z"/>
<path d="M1360 3231 l0 -81 48 0 c26 0 53 5 60 12 14 14 16 54 2 63 -6 4 -5
13 3 25 20 34 -2 55 -62 58 l-51 3 0 -80z m79 50 c12 -8 12 -12 2 -25 -24 -29
-60 -13 -47 19 6 17 24 19 45 6z m9 -83 c4 -19 -35 -35 -50 -20 -6 6 -8 18 -4
27 8 21 50 16 54 -7z"/>
<path d="M6162 3228 l3 -83 47 -3 c38 -2 49 1 61 19 11 14 13 28 7 43 -4 12
-6 34 -3 49 8 41 -12 57 -69 57 l-49 0 3 -82z m86 35 c-4 -20 -35 -30 -50 -15
-15 15 0 32 28 32 19 0 25 -5 22 -17z m2 -73 c0 -15 -7 -20 -24 -20 -14 0 -28
5 -31 10 -10 16 4 30 31 30 17 0 24 -5 24 -20z"/>
<path d="M1763 3275 c-6 -14 -7 -27 -2 -31 5 -3 9 -18 9 -34 0 -44 10 -60 36
-60 27 0 32 15 9 24 -9 3 -15 18 -15 35 0 16 6 31 15 35 8 3 15 10 15 16 0 5
-7 10 -15 10 -8 0 -15 7 -15 15 0 24 -24 17 -37 -10z"/>
<path d="M6573 3273 c-8 -16 -9 -31 -4 -37 5 -6 11 -29 13 -51 2 -33 7 -41 26
-43 15 -2 22 2 22 12 0 9 -4 16 -10 16 -5 0 -10 16 -10 35 0 24 5 35 15 35 8
0 15 4 15 9 0 5 -7 11 -15 15 -8 3 -15 12 -15 21 0 24 -24 17 -37 -12z"/>
<path d="M1528 3259 c-22 -12 -24 -81 -4 -98 18 -15 78 -10 84 7 3 8 -6 12
-29 10 -18 -2 -34 2 -36 10 -3 8 8 12 36 12 45 0 51 11 25 48 -16 23 -48 28
-76 11z m52 -29 c0 -5 -9 -10 -20 -10 -11 0 -20 5 -20 10 0 6 9 10 20 10 11 0
20 -4 20 -10z"/>
<path d="M1652 3258 c-21 -21 -13 -46 18 -57 41 -14 40 -35 -1 -26 -24 6 -30
4 -27 -6 3 -9 21 -14 49 -14 38 0 44 3 47 23 3 18 -4 26 -32 37 -20 9 -36 20
-36 25 0 13 16 13 40 -2 26 -16 40 0 16 18 -24 17 -58 18 -74 2z"/>
<path d="M6330 3250 c-43 -43 -12 -115 46 -108 39 4 44 28 5 28 -16 0 -33 5
-36 10 -4 6 10 10 34 10 34 0 41 3 41 20 0 23 -33 60 -55 60 -8 0 -24 -9 -35
-20z m55 -19 c3 -5 1 -13 -5 -16 -15 -9 -43 3 -35 15 8 13 32 13 40 1z"/>
<path d="M6456 3254 c-26 -25 -17 -47 28 -64 20 -7 26 -14 19 -21 -7 -7 -17
-7 -31 2 -25 16 -40 5 -22 -16 25 -30 90 -16 90 20 0 18 -9 27 -35 36 -19 7
-35 17 -35 22 0 5 16 6 35 3 38 -8 48 7 16 24 -27 14 -47 13 -65 -6z"/>
<path d="M3010 3165 l0 -65 45 0 c25 0 46 3 46 8 7 34 4 99 -4 110 -5 6 -27
12 -48 12 l-39 0 0 -65z m70 30 c0 -8 -9 -15 -20 -15 -11 0 -20 7 -20 15 0 8
9 15 20 15 11 0 20 -7 20 -15z m0 -60 c0 -8 -9 -15 -20 -15 -11 0 -20 7 -20
15 0 8 9 15 20 15 11 0 20 -7 20 -15z"/>
<path d="M4610 3166 l0 -66 40 0 c28 0 42 5 49 19 6 10 7 21 3 25 -3 4 -6 24
-7 44 0 36 -1 37 -42 40 l-43 3 0 -65z m65 35 c3 -5 1 -13 -5 -16 -15 -9 -43
3 -35 15 8 13 32 13 40 1z m3 -58 c5 -17 -26 -29 -40 -15 -6 6 -7 15 -3 22 9
14 37 9 43 -7z"/>
<path d="M3343 3200 c-8 -12 -9 -21 -3 -25 6 -3 10 -21 10 -40 0 -20 6 -35 15
-38 21 -9 28 9 13 33 -10 16 -10 24 0 40 10 17 10 23 -2 35 -18 19 -19 19 -33
-5z"/>
<path d="M4937 3206 c-9 -23 5 -97 20 -103 19 -8 29 5 15 19 -17 17 -15 48 4
55 13 5 12 8 -5 24 -24 23 -27 23 -34 5z"/>
<path d="M3146 3184 c-36 -36 2 -105 48 -88 25 9 19 24 -9 24 -14 0 -25 5 -25
10 0 6 14 10 30 10 19 0 30 5 30 14 0 18 -27 46 -45 46 -7 0 -21 -7 -29 -16z
m44 -25 c0 -5 -7 -9 -15 -9 -15 0 -20 12 -9 23 8 8 24 -1 24 -14z"/>
<path d="M3253 3193 c-22 -8 -14 -43 12 -53 14 -5 25 -14 25 -20 0 -13 -6 -13
-31 0 -15 8 -19 7 -19 -3 0 -19 38 -29 62 -16 26 14 22 38 -7 49 -14 5 -25 14
-25 20 0 13 17 13 25 0 4 -6 11 -8 16 -4 14 8 -9 34 -30 33 -9 0 -22 -3 -28
-6z"/>
<path d="M4742 3188 c-17 -17 -15 -63 2 -78 17 -13 63 -10 57 5 -2 6 -12 9
-23 7 -10 -2 -18 2 -18 7 0 6 11 11 24 11 33 0 39 12 20 38 -17 24 -44 28 -62
10z m38 -18 c0 -5 -7 -10 -16 -10 -8 0 -12 5 -9 10 3 6 10 10 16 10 5 0 9 -4
9 -10z"/>
<path d="M4840 3185 c-10 -12 -10 -18 0 -30 7 -8 19 -15 26 -15 8 0 14 -5 14
-11 0 -7 -10 -9 -26 -5 -19 5 -25 3 -22 -6 3 -7 20 -13 39 -13 43 0 53 29 15
46 -34 16 -33 31 2 23 24 -7 26 -6 13 9 -17 21 -45 22 -61 2z"/>
<path d="M1186 3054 c-9 -8 -16 -21 -16 -28 0 -17 29 -42 63 -55 15 -6 27 -17
27 -26 0 -21 -47 -19 -59 3 -8 14 -12 15 -23 4 -11 -11 -9 -17 11 -33 31 -26
76 -25 95 3 20 28 7 52 -45 78 -22 12 -37 25 -34 30 8 13 55 13 55 0 0 -5 7
-10 15 -10 18 0 20 21 3 38 -17 17 -74 15 -92 -4z"/>
<path d="M5998 3060 c-11 -7 -18 -23 -18 -41 0 -26 6 -32 45 -49 32 -14 43
-23 39 -35 -8 -20 -33 -19 -56 2 -24 22 -44 5 -25 -21 19 -26 85 -26 103 -1
22 29 13 47 -34 73 -23 13 -42 28 -42 33 0 18 31 21 49 5 19 -17 41 -21 41 -8
0 34 -69 62 -102 42z"/>
<path d="M1963 3033 c-8 -16 -9 -31 -4 -37 5 -6 11 -29 13 -51 2 -33 7 -41 26
-43 15 -2 22 2 22 12 0 9 -4 16 -10 16 -5 0 -10 16 -10 35 0 24 5 35 15 35 8
0 15 5 15 10 0 6 -7 13 -15 16 -8 4 -15 12 -15 20 0 24 -24 15 -37 -13z"/>
<path d="M6763 3025 c-6 -14 -7 -27 -2 -31 5 -3 9 -23 9 -45 0 -32 4 -41 23
-48 26 -10 50 5 28 18 -18 12 -20 52 -3 73 11 14 11 19 -5 37 -23 27 -35 26
-50 -4z"/>
<path d="M2677 3033 c-4 -3 -7 -35 -7 -70 0 -48 3 -63 14 -63 9 0 16 12 18 33
l4 32 19 -32 c26 -43 52 -46 31 -4 -14 26 -14 30 -1 41 8 7 15 18 15 26 0 28
-73 58 -93 37z m63 -38 c0 -8 -9 -15 -20 -15 -11 0 -20 7 -20 15 0 8 9 15 20
15 11 0 20 -7 20 -15z"/>
<path d="M2900 2970 c0 -40 4 -70 10 -70 6 0 10 30 10 70 0 40 -4 70 -10 70
-6 0 -10 -30 -10 -70z"/>
<path d="M3122 3029 c2 -6 8 -10 13 -10 5 0 11 4 13 10 2 6 -4 11 -13 11 -9 0
-15 -5 -13 -11z"/>
<path d="M3487 3023 c-9 -34 -2 -116 11 -121 8 -2 12 8 12 32 0 38 17 57 31
35 5 -8 9 -26 9 -41 0 -16 5 -28 10 -28 6 0 10 20 10 45 0 43 -2 46 -30 52
-16 3 -30 11 -30 19 0 21 -18 26 -23 7z"/>
<path d="M3595 3031 c-6 -11 9 -23 19 -14 9 9 7 23 -3 23 -6 0 -12 -4 -16 -9z"/>
<path d="M4272 2973 c3 -66 20 -91 26 -38 4 33 13 32 34 -6 20 -34 45 -31 27
3 -8 15 -8 27 2 45 19 36 1 57 -50 61 l-42 3 3 -68z m66 24 c2 -12 -3 -17 -17
-17 -15 0 -21 6 -21 21 0 25 33 22 38 -4z"/>
<path d="M4494 3026 c-9 -23 0 -121 11 -119 14 4 19 133 5 133 -6 0 -13 -6
-16 -14z"/>
<path d="M4720 3030 c0 -5 5 -10 10 -10 6 0 10 5 10 10 0 6 -4 10 -10 10 -5 0
-10 -4 -10 -10z"/>
<path d="M5077 3033 c-3 -5 -4 -34 -3 -66 2 -62 18 -78 26 -26 7 46 28 48 32
4 4 -50 23 -44 23 8 0 38 -2 42 -27 45 -20 2 -28 9 -28 23 0 19 -15 26 -23 12z"/>
<path d="M5180 3030 c0 -5 7 -10 15 -10 8 0 15 5 15 10 0 6 -7 10 -15 10 -8 0
-15 -4 -15 -10z"/>
<path d="M1327 3024 c-12 -12 -8 -101 6 -112 6 -5 29 -10 50 -10 l38 0 -3 62
c-4 72 -22 82 -26 13 -3 -39 -6 -48 -20 -45 -12 2 -18 15 -20 43 -3 41 -13 60
-25 49z"/>
<path d="M1454 3021 c-2 -2 -4 -40 -4 -83 0 -70 2 -79 18 -76 10 2 16 11 14
21 -2 13 4 17 26 17 15 0 33 5 40 12 16 16 15 95 0 105 -14 8 -86 11 -94 4z
m71 -57 c0 -19 -6 -30 -16 -32 -21 -4 -29 17 -18 46 12 32 34 22 34 -14z"/>
<path d="M1596 3022 c-3 -3 -6 -41 -6 -84 0 -63 3 -78 15 -78 9 0 15 9 15 24
0 19 4 22 23 19 14 -3 31 2 40 12 18 18 22 71 8 94 -9 14 -84 25 -95 13z m69
-58 c0 -22 -5 -29 -20 -29 -23 0 -32 30 -14 51 18 22 34 11 34 -22z"/>
<path d="M1746 3014 c-25 -25 -24 -82 2 -101 58 -46 125 44 72 97 -24 24 -53
26 -74 4z m52 -52 c4 -35 -16 -44 -37 -18 -9 11 -10 20 -1 36 16 29 34 20 38
-18z"/>
<path d="M1865 3022 c-3 -3 -5 -32 -5 -64 0 -51 2 -59 18 -56 12 2 18 15 20
46 2 28 8 42 18 42 8 0 14 5 14 10 0 6 0 13 0 17 0 9 -57 13 -65 5z"/>
<path d="M3051 3008 c-9 -14 -10 -23 -2 -31 6 -6 11 -26 11 -44 0 -26 4 -33
20 -33 11 0 20 5 20 10 0 6 -4 10 -10 10 -14 0 -12 58 2 62 8 3 6 11 -8 26
l-20 21 -13 -21z"/>
<path d="M4647 3016 c-8 -21 4 -100 17 -108 17 -12 26 -9 26 7 0 8 -4 15 -10
15 -16 0 -11 47 5 54 13 5 12 9 -5 26 -24 24 -26 24 -33 6z"/>
<path d="M6120 2973 c0 -70 7 -77 78 -74 l32 1 0 61 c0 52 -2 60 -17 57 -12
-2 -17 -11 -15 -27 5 -34 -6 -71 -22 -71 -17 0 -26 22 -26 66 0 24 -5 34 -15
34 -11 0 -15 -12 -15 -47z"/>
<path d="M6260 2944 c0 -41 0 -77 -1 -81 0 -5 7 -9 15 -11 11 -3 16 4 16 23 0
22 4 25 19 20 25 -8 61 26 61 58 0 41 -26 66 -70 65 l-40 0 0 -74z m74 30 c8
-20 -12 -56 -27 -51 -14 4 -21 32 -13 53 7 19 32 18 40 -2z"/>
<path d="M6394 3005 c-3 -6 -4 -43 -2 -81 2 -53 6 -69 18 -69 8 0 16 10 18 23
3 17 8 21 22 17 24 -8 60 27 60 58 0 42 -26 66 -71 65 -22 0 -43 -6 -45 -13z
m74 -47 c-3 -36 -30 -46 -36 -15 -5 26 5 47 23 47 12 0 15 -8 13 -32z"/>
<path d="M6546 3004 c-26 -26 -20 -81 10 -101 24 -15 29 -15 53 -2 32 18 41
77 16 103 -21 20 -59 21 -79 0z m59 -49 c0 -39 -31 -48 -41 -11 -7 30 2 48 24
44 11 -2 17 -13 17 -33z"/>
<path d="M6670 2953 c0 -47 3 -64 13 -61 6 3 13 23 15 46 2 30 8 43 23 47 33
11 22 33 -16 33 l-35 0 0 -65z"/>
<path d="M2802 2988 c-17 -17 -15 -63 2 -78 17 -13 63 -10 57 5 -2 6 -12 9
-22 7 -9 -2 -20 2 -24 8 -4 6 5 10 24 10 37 0 44 11 25 38 -17 24 -44 28 -62
10z m43 -18 c3 -5 -3 -10 -15 -10 -12 0 -18 5 -15 10 3 6 10 10 15 10 5 0 12
-4 15 -10z"/>
<path d="M2949 2983 c-13 -15 -11 -16 12 -10 38 10 44 -5 8 -20 -46 -19 -36
-47 19 -51 42 -3 42 -3 42 32 0 57 -50 87 -81 49z m51 -53 c0 -5 -7 -10 -15
-10 -8 0 -15 5 -15 10 0 6 7 10 15 10 8 0 15 -4 15 -10z"/>
<path d="M3126 2993 c-3 -3 -6 -26 -6 -50 0 -32 4 -43 15 -43 11 0 15 12 15
44 0 43 -10 63 -24 49z"/>
<path d="M3182 2988 c-7 -7 -12 -24 -12 -38 0 -32 17 -50 47 -50 38 0 56 55
27 84 -18 19 -45 21 -62 4z m48 -44 c0 -15 -6 -24 -15 -24 -21 0 -30 27 -15
45 16 19 30 10 30 -21z"/>
<path d="M3280 2948 c0 -36 4 -48 15 -48 11 0 15 11 15 41 0 52 24 48 28 -4 4
-52 30 -50 27 2 -3 52 -10 61 -50 59 -35 -1 -35 -1 -35 -50z"/>
<path d="M3397 2994 c-16 -16 -6 -45 18 -54 33 -13 32 -24 -1 -16 -19 5 -25 3
-22 -6 7 -21 64 -22 72 -1 7 18 -16 43 -41 43 -7 0 -13 5 -13 11 0 7 10 9 26
5 19 -5 25 -3 22 6 -5 14 -50 23 -61 12z"/>
<path d="M3598 2993 c-9 -17 0 -87 11 -91 7 -2 11 13 11 47 0 44 -11 66 -22
44z"/>
<path d="M3644 2985 c-10 -24 1 -118 14 -123 7 -2 12 5 12 17 0 16 6 21 25 21
30 0 48 30 39 65 -7 28 -5 27 -52 31 -20 1 -35 -3 -38 -11z m61 -26 c8 -23 -7
-45 -24 -35 -12 8 -15 39 -4 49 12 12 22 7 28 -14z"/>
<path d="M4397 2994 c-4 -4 -7 -22 -7 -40 0 -38 24 -56 58 -47 26 6 30 25 5
22 -32 -3 -44 1 -38 11 3 6 17 10 31 10 21 0 25 4 22 23 -2 16 -11 23 -33 25
-17 2 -34 0 -38 -4z m43 -24 c0 -5 -4 -10 -10 -10 -5 0 -10 5 -10 10 0 6 5 10
10 10 6 0 10 -4 10 -10z"/>
<path d="M4545 2991 c-7 -12 0 -14 28 -12 25 3 21 -17 -5 -21 -14 -2 -24 -11
-26 -24 -4 -25 14 -34 52 -27 25 5 27 9 24 47 -3 38 -5 41 -35 44 -17 2 -34
-2 -38 -7z m45 -56 c0 -8 -4 -15 -9 -15 -13 0 -22 16 -14 24 11 11 23 6 23 -9z"/>
<path d="M4714 2975 c-8 -31 3 -78 16 -70 13 8 13 95 0 95 -5 0 -12 -11 -16
-25z"/>
<path d="M4772 2988 c-18 -18 -14 -53 8 -73 17 -15 24 -16 45 -7 25 12 32 41
19 76 -7 19 -55 21 -72 4z m54 -23 c7 -18 -14 -47 -27 -39 -5 3 -9 16 -9 30 0
27 27 34 36 9z"/>
<path d="M4872 2953 c4 -57 22 -64 26 -10 2 23 8 37 17 37 9 0 15 -14 17 -37
2 -21 8 -38 13 -38 13 0 19 40 11 71 -5 20 -12 24 -47 24 l-40 0 3 -47z"/>
<path d="M4987 2994 c-14 -15 -6 -35 18 -46 14 -6 25 -15 25 -20 0 -5 -11 -6
-25 -2 -30 7 -35 -12 -5 -21 21 -7 60 10 60 25 0 6 -15 20 -32 31 l-33 21 28
-7 c21 -4 28 -2 25 7 -5 14 -50 23 -61 12z"/>
<path d="M5182 2953 c2 -27 8 -48 13 -48 6 0 11 21 13 48 3 38 0 47 -13 47
-13 0 -16 -9 -13 -47z"/>
<path d="M5230 2935 c0 -51 3 -65 15 -65 8 0 15 9 15 21 0 11 4 17 10 14 17
-11 50 15 50 40 0 44 -10 55 -51 55 l-39 0 0 -65z m64 29 c8 -20 -1 -34 -20
-34 -8 0 -14 10 -14 25 0 28 24 34 34 9z"/>
<path d="M1081 2756 c-16 -19 1 -52 29 -61 11 -3 20 -11 20 -16 0 -13 -24 -11
-38 3 -20 20 -26 -1 -7 -22 23 -25 37 -25 60 0 17 19 17 21 0 40 -10 11 -24
20 -32 20 -7 0 -13 4 -13 8 0 17 13 21 31 9 25 -16 39 1 15 19 -25 18 -50 18
-65 0z"/>
<path d="M1390 2710 c0 -33 4 -60 10 -60 6 0 10 27 10 60 0 33 -4 60 -10 60
-6 0 -10 -27 -10 -60z"/>
<path d="M1430 2710 c0 -33 4 -60 10 -60 6 0 10 27 10 60 0 33 -4 60 -10 60
-6 0 -10 -27 -10 -60z"/>
<path d="M1507 2763 c-4 -3 -7 -30 -7 -59 0 -44 3 -54 20 -59 10 -3 28 -1 40
5 16 8 20 21 20 59 0 35 -4 51 -16 55 -21 8 -49 8 -57 -1z m53 -34 c0 -5 -7
-9 -15 -9 -8 0 -15 7 -15 15 0 9 6 12 15 9 8 -4 15 -10 15 -15z m-2 -47 c2 -7
-3 -12 -12 -12 -9 0 -16 7 -16 16 0 17 22 14 28 -4z"/>
<path d="M1770 2755 c0 -8 5 -15 10 -15 6 0 10 7 10 15 0 8 -4 15 -10 15 -5 0
-10 -7 -10 -15z"/>
<path d="M2688 2750 l-23 -20 34 -30 c36 -31 38 -51 2 -29 -25 16 -39 5 -21
-16 17 -20 60 -15 74 8 9 15 7 22 -12 37 -12 10 -28 20 -35 23 -6 2 -9 7 -5
11 3 4 15 2 27 -5 21 -14 37 -8 26 10 -16 27 -43 31 -67 11z"/>
<path d="M3377 2763 c-10 -19 -1 -117 11 -121 9 -3 12 11 11 57 -2 56 -11 83
-22 64z"/>
<path d="M4620 2710 c0 -33 4 -60 10 -60 6 0 10 11 10 25 0 18 5 25 20 25 11
0 20 5 20 10 0 6 -9 10 -20 10 -11 0 -20 7 -20 15 0 10 10 15 30 15 17 0 30 5
30 10 0 6 -18 10 -40 10 l-40 0 0 -60z"/>
<path d="M4725 2758 c-37 -102 -38 -116 -4 -95 15 9 24 9 40 -1 12 -7 23 -11
25 -9 3 2 -3 28 -13 58 -18 52 -39 73 -48 47z m21 -65 c-11 -11 -19 6 -11 24
8 17 8 17 12 0 3 -10 2 -21 -1 -24z"/>
<path d="M4802 2714 l3 -59 39 -3 c28 -3 37 0 34 10 -3 7 -14 12 -26 10 -18
-3 -21 3 -24 44 -2 28 -8 49 -16 52 -10 3 -12 -10 -10 -54z"/>
<path d="M4897 2763 c-9 -8 -9 -76 -1 -97 4 -10 18 -16 40 -16 38 0 47 17 12
22 -20 3 -23 10 -26 51 -3 44 -10 56 -25 40z"/>
<path d="M2990 2700 c0 -45 3 -61 13 -57 7 2 12 23 12 57 0 34 -5 55 -12 58
-10 3 -13 -13 -13 -58z"/>
<path d="M3030 2699 c0 -81 24 -77 28 4 2 46 0 57 -13 57 -12 0 -15 -13 -15
-61z"/>
<path d="M3104 2747 c-3 -8 -4 -34 -2 -58 3 -40 6 -44 31 -47 42 -5 55 12 53
66 -1 47 -1 47 -39 50 -25 2 -39 -1 -43 -11z m54 -18 c-2 -6 -8 -10 -13 -10
-5 0 -11 4 -13 10 -2 6 4 11 13 11 9 0 15 -5 13 -11z m3 -54 c-1 -15 -24 -12
-29 3 -3 9 2 13 12 10 10 -1 17 -7 17 -13z"/>
<path d="M6220 2699 c0 -44 3 -60 13 -57 6 3 13 14 15 26 2 12 10 22 18 22 8
0 14 5 14 10 0 6 -7 10 -15 10 -8 0 -15 7 -15 15 0 9 9 15 25 15 14 0 25 5 25
10 0 6 -18 10 -40 10 l-40 0 0 -61z"/>
<path d="M6314 2705 c-19 -60 -16 -73 14 -54 17 10 23 10 36 -1 9 -7 19 -10
23 -6 11 11 -27 116 -42 116 -8 0 -21 -23 -31 -55z m33 -17 c-3 -8 -6 -5 -6 6
-1 11 2 17 5 13 3 -3 4 -12 1 -19z"/>
<path d="M6404 2745 c-4 -8 -3 -35 0 -60 7 -45 8 -45 47 -45 21 0 39 5 39 10
0 6 -6 11 -12 11 -7 1 -20 2 -28 3 -11 1 -16 15 -18 49 -3 46 -17 62 -28 32z"/>
<path d="M6500 2701 l0 -61 40 0 c22 0 40 5 40 10 0 6 -11 10 -24 10 -22 0
-25 5 -28 47 -5 73 -28 68 -28 -6z"/>
<path d="M1188 2732 c-14 -3 -18 -13 -18 -43 0 -21 5 -39 10 -39 6 0 10 14 10
30 0 20 5 30 15 30 10 0 15 -10 15 -30 0 -16 5 -30 10 -30 6 0 10 14 10 30 0
20 5 30 15 30 10 0 15 -10 15 -30 0 -16 5 -30 10 -30 11 0 14 79 3 81 -27 4
-81 4 -95 1z"/>
<path d="M1314 2724 c-19 -15 -18 -15 3 -11 13 3 26 1 29 -4 3 -5 -4 -9 -16
-9 -11 0 -23 -7 -27 -16 -8 -22 18 -45 45 -38 38 11 28 94 -12 94 -1 0 -11 -7
-22 -16z"/>
<path d="M1703 2733 c-21 -8 -15 -43 10 -54 l22 -10 -22 5 c-15 2 -23 -1 -23
-9 0 -16 25 -26 45 -19 22 9 19 45 -5 51 -11 3 -20 9 -20 13 0 5 9 6 20 3 24
-6 27 12 4 21 -9 3 -16 6 -17 5 -1 0 -8 -3 -14 -6z"/>
<path d="M1828 2733 c-13 -3 -18 -15 -18 -44 0 -21 5 -39 10 -39 6 0 10 14 10
30 0 20 5 30 15 30 10 0 15 -10 15 -30 0 -16 5 -30 10 -30 14 0 12 64 -2 78
-7 7 -14 11 -17 11 -4 -1 -14 -3 -23 -6z"/>
<path d="M1906 2724 c-21 -20 -20 -37 2 -64 16 -20 21 -21 43 -9 l24 13 -30 7
-30 7 28 1 c33 1 38 34 8 51 -25 13 -27 13 -45 -6z m34 -14 c0 -5 -5 -10 -11
-10 -5 0 -7 5 -4 10 3 6 8 10 11 10 2 0 4 -4 4 -10z"/>
<path d="M1989 2724 c-11 -14 -10 -19 11 -36 24 -20 24 -20 3 -14 -26 8 -30
-5 -9 -23 11 -9 20 -10 35 -1 27 14 27 37 1 45 -27 9 -25 24 3 18 21 -4 22 -4
3 11 -25 20 -30 20 -47 0z"/>
<path d="M2073 2733 c-21 -8 -15 -39 10 -52 l22 -11 -22 6 c-26 6 -30 -8 -9
-25 11 -9 20 -10 35 -1 27 14 27 37 1 45 -27 9 -25 24 3 18 21 -4 22 -4 3 11
-21 17 -24 17 -43 9z"/>
<path d="M1600 2696 c0 -39 17 -57 48 -49 18 4 22 13 22 44 0 44 -17 53 -22
12 -4 -39 -28 -42 -28 -4 0 17 -4 31 -10 31 -5 0 -10 -15 -10 -34z"/>
<path d="M1770 2690 c0 -22 5 -40 10 -40 6 0 10 18 10 40 0 22 -4 40 -10 40
-5 0 -10 -18 -10 -40z"/>
<path d="M2777 2724 c-13 -13 -8 -86 6 -81 6 2 12 15 13 28 0 37 19 38 22 2 2
-18 7 -33 12 -33 5 0 10 15 12 33 2 17 8 32 13 32 6 0 11 -15 13 -32 5 -49 24
-40 20 10 l-3 42 -50 3 c-28 2 -54 0 -58 -4z"/>
<path d="M2915 2720 c-4 -6 -4 -14 -1 -17 3 -3 1 -12 -5 -19 -19 -24 -2 -44
36 -44 l36 0 -3 43 c-3 37 -6 42 -30 45 -14 2 -29 -2 -33 -8z m35 -50 c0 -5
-4 -10 -10 -10 -5 0 -10 5 -10 10 0 6 5 10 10 10 6 0 10 -4 10 -10z"/>
<path d="M3207 2723 c-11 -11 -8 -58 5 -71 7 -7 25 -12 40 -12 27 0 28 2 28
45 0 33 -4 45 -15 45 -10 0 -15 -11 -15 -35 0 -19 -4 -35 -10 -35 -5 0 -10 16
-10 35 0 33 -8 43 -23 28z"/>
<path d="M3293 2714 c-4 -11 2 -23 18 -35 l24 -18 -24 6 c-18 4 -22 2 -19 -8
2 -8 17 -15 31 -17 38 -5 48 25 16 50 l-24 19 24 -6 c17 -5 22 -4 19 6 -7 21
-57 24 -65 3z"/>
<path d="M3414 2716 c-8 -22 0 -69 13 -73 7 -3 13 9 15 29 3 37 22 36 22 -1 1
-13 7 -26 14 -29 10 -3 12 7 10 39 -3 42 -5 44 -36 47 -21 2 -34 -2 -38 -12z"/>
<path d="M3510 2714 c-22 -26 -1 -69 34 -69 24 0 29 4 32 30 5 49 -37 75 -66
39z m40 -14 c0 -5 -2 -10 -4 -10 -3 0 -8 5 -11 10 -3 6 -1 10 4 10 6 0 11 -4
11 -10z m0 -30 c0 -5 -5 -10 -11 -10 -5 0 -7 5 -4 10 3 6 8 10 11 10 2 0 4 -4
4 -10z"/>
<path d="M3593 2714 c-4 -11 2 -23 18 -36 l24 -19 -24 6 c-17 5 -22 4 -19 -6
3 -8 17 -15 31 -17 38 -5 48 25 16 49 l-24 18 24 -6 c18 -4 22 -2 19 8 -7 21
-57 24 -65 3z"/>
<path d="M3673 2714 c-4 -11 2 -23 18 -36 l24 -19 -24 6 c-17 5 -22 4 -19 -6
3 -8 17 -15 31 -17 38 -5 48 25 16 49 l-24 18 24 -6 c18 -4 22 -2 19 8 -7 21
-57 24 -65 3z"/>
<path d="M1420 2475 c0 -30 5 -55 10 -55 6 0 10 11 10 24 0 18 7 26 23 29 l22
4 -23 8 c-27 9 -24 30 5 30 12 0 25 3 29 8 4 4 -11 7 -34 7 l-42 0 0 -55z"/>
<path d="M1525 2518 c-33 -91 -34 -98 -20 -98 8 0 15 5 15 10 0 14 33 13 48
-2 20 -20 22 -4 5 50 -16 49 -38 67 -48 40z m23 -57 c-15 -5 -21 7 -13 26 7
17 8 17 15 -2 4 -11 3 -22 -2 -24z"/>
<path d="M1610 2475 l0 -55 35 0 c19 0 35 5 35 10 0 6 -11 10 -25 10 -23 0
-25 4 -25 45 0 25 -4 45 -10 45 -5 0 -10 -25 -10 -55z"/>
<path d="M1700 2475 l0 -55 40 0 c22 0 40 5 40 10 0 6 -13 10 -30 10 -29 0
-30 2 -30 45 0 25 -4 45 -10 45 -5 0 -10 -25 -10 -55z"/>
<path d="M3024 2516 c-9 -22 0 -101 11 -98 6 1 10 10 10 19 0 10 8 19 18 21
23 5 22 18 -4 25 -27 7 -15 27 17 27 13 0 24 5 24 10 0 16 -70 12 -76 -4z"/>
<path d="M3126 2498 c-23 -53 -29 -88 -18 -88 6 0 14 5 17 10 9 14 42 12 48
-2 2 -7 8 -10 12 -6 11 10 -18 111 -33 116 -7 2 -19 -12 -26 -30z m34 -33 c0
-8 -7 -15 -15 -15 -9 0 -12 6 -9 15 4 8 10 15 15 15 5 0 9 -7 9 -15z"/>
<path d="M3212 2473 l3 -58 38 -3 c42 -4 52 15 10 20 -24 3 -28 8 -30 38 -1
19 -2 41 -2 48 -1 6 -6 12 -11 12 -7 0 -10 -22 -8 -57z"/>
<path d="M3306 2523 c-8 -8 -8 -76 0 -97 7 -18 74 -23 74 -6 0 6 -11 10 -25
10 -23 0 -25 4 -25 44 0 43 -10 63 -24 49z"/>
<path d="M4592 2484 c-23 -16 -30 -44 -11 -44 7 0 17 7 24 17 12 16 45 13 45
-5 0 -5 -18 -30 -40 -55 -22 -25 -40 -50 -40 -56 0 -7 22 -11 55 -11 42 0 55
3 55 15 0 10 -10 15 -31 15 l-31 0 25 30 c39 46 44 71 17 92 -27 22 -39 22
-68 2z"/>
<path d="M4726 2487 c-26 -19 -33 -99 -12 -132 18 -27 63 -34 84 -13 20 20 15
122 -6 141 -22 20 -42 21 -66 4z m52 -76 c3 -50 2 -52 -20 -49 -19 2 -24 10
-26 41 -3 39 12 71 32 64 6 -2 12 -27 14 -56z"/>
<path d="M4858 2489 c-20 -11 -25 -49 -7 -49 7 0 17 7 24 17 13 17 35 10 35
-11 0 -6 -16 -27 -35 -46 -19 -19 -35 -42 -35 -52 0 -17 7 -19 53 -16 53 3 68
20 22 26 -31 4 -31 12 0 42 56 52 8 127 -57 89z"/>
<path d="M4976 2488 c-18 -10 -18 -12 -3 -23 11 -8 17 -30 19 -70 2 -35 8 -60
16 -63 9 -3 12 18 12 82 0 90 -4 97 -44 74z"/>
<path d="M6186 2464 c-9 -8 -16 -20 -16 -25 0 -15 37 -10 44 6 7 19 25 19 32
0 4 -9 -11 -35 -35 -64 -23 -27 -41 -52 -41 -55 0 -3 27 -6 60 -6 33 0 60 4
60 10 0 10 -13 14 -42 11 -25 -3 -22 15 7 47 42 45 28 92 -26 92 -15 0 -35 -7
-43 -16z"/>
<path d="M6322 2468 c-7 -7 -12 -38 -12 -70 0 -49 3 -60 24 -73 27 -18 69 -7
80 20 9 25 7 80 -4 109 -8 21 -16 26 -43 26 -18 0 -38 -5 -45 -12z m56 -20
c17 -17 15 -83 -3 -98 -23 -19 -35 -2 -35 49 0 60 12 75 38 49z"/>
<path d="M6452 2468 c-15 -15 -16 -38 -1 -38 6 0 17 7 25 15 15 14 44 10 44
-6 0 -5 -18 -29 -40 -53 -22 -24 -40 -48 -40 -55 0 -7 21 -11 56 -11 40 0 54
3 51 13 -2 7 -15 11 -30 9 -34 -4 -34 3 3 45 33 37 35 45 20 74 -12 22 -68 27
-88 7z"/>
<path d="M6577 2473 c-12 -11 -8 -23 8 -23 12 0 15 -14 15 -65 0 -51 3 -65 15
-65 12 0 15 16 15 80 0 77 -1 80 -23 80 -13 0 -27 -3 -30 -7z"/>
<path d="M1451 2366 c-8 -9 -8 -16 -2 -20 5 -4 12 -2 16 4 3 5 10 10 16 10 17
0 9 -26 -16 -50 -34 -32 -32 -40 15 -40 22 0 40 5 40 10 0 6 -9 10 -20 10 -20
0 -20 0 1 30 18 24 20 32 9 45 -16 19 -44 19 -59 1z"/>
<path d="M1540 2355 c-21 -55 -3 -90 42 -83 21 3 23 8 23 53 0 47 -2 50 -27
53 -22 3 -30 -2 -38 -23z m50 -30 c0 -24 -5 -35 -15 -35 -10 0 -15 11 -15 35
0 24 5 35 15 35 10 0 15 -11 15 -35z"/>
<path d="M1637 2374 c-4 -4 -7 -13 -7 -21 0 -11 4 -11 20 -1 31 20 34 2 6 -35
-14 -19 -26 -37 -26 -40 0 -4 16 -7 35 -7 19 0 35 5 35 10 0 6 -10 10 -22 10
l-21 0 22 24 c29 30 24 60 -9 64 -14 2 -29 0 -33 -4z"/>
<path d="M1720 2371 c0 -6 5 -13 11 -16 6 -4 9 -23 7 -44 -3 -42 15 -50 20 -7
5 41 -6 76 -23 76 -8 0 -15 -4 -15 -9z"/>
<path d="M3057 2364 c-4 -4 -7 -13 -7 -21 0 -11 4 -11 20 -1 31 20 35 1 6 -36
-14 -19 -26 -37 -26 -40 0 -3 16 -6 35 -6 19 0 35 5 35 10 0 6 -7 10 -15 10
-19 0 -19 14 0 30 24 20 15 54 -15 58 -14 2 -29 0 -33 -4z"/>
<path d="M3146 2354 c-13 -33 -6 -83 12 -93 43 -23 78 40 52 90 -13 23 -55 25
-64 3z m44 -39 c0 -24 -5 -35 -15 -35 -15 0 -22 50 -8 63 15 15 23 5 23 -28z"/>
<path d="M3241 2356 c-8 -9 -8 -16 -2 -20 5 -4 12 -2 16 4 3 5 10 10 16 10 16
0 10 -21 -18 -54 -26 -31 -26 -31 -5 -34 12 -2 32 -1 45 1 l22 4 -22 8 -22 7
21 29 c18 23 19 31 8 44 -16 19 -44 19 -59 1z"/>
<path d="M3325 2361 c-3 -5 -1 -12 5 -16 5 -3 10 -24 10 -46 0 -21 5 -39 10
-39 6 0 10 25 10 55 0 41 -4 55 -14 55 -8 0 -17 -4 -21 -9z"/>
<path d="M3980 1762 l-145 -2 2 -118 2 -117 72 -43 73 -43 50 27 c102 54 97
45 98 177 1 64 0 118 -3 119 -2 2 -69 2 -149 0z m42 -58 c35 -6 37 -8 36 -46
0 -22 5 -45 11 -51 19 -19 12 -44 -20 -71 -49 -42 -117 -33 -149 19 -30 48
-26 81 14 121 35 35 46 38 108 28z"/>
<path d="M3976 1660 c-39 -25 -49 -45 -36 -69 13 -25 45 -35 67 -22 16 9 16
10 -4 11 -26 0 -28 8 -9 35 18 26 30 65 19 64 -4 0 -21 -9 -37 -19z"/>
<path d="M2219 1756 c-2 -2 -2 -57 1 -122 l5 -118 70 -37 70 -38 73 40 72 41
0 119 0 119 -143 0 c-79 0 -146 -2 -148 -4z m191 -55 c20 -6 25 -14 27 -44 1
-20 7 -45 13 -56 14 -26 14 -26 -17 -59 -35 -37 -67 -45 -108 -28 -73 31 -87
106 -31 162 35 35 61 40 116 25z"/>
<path d="M2372 1670 c-7 -11 -19 -20 -27 -20 -9 0 -21 -11 -27 -25 -9 -21 -8
-28 7 -45 10 -11 28 -20 39 -20 17 0 18 2 6 10 -13 8 -12 14 4 47 11 21 21 40
22 43 2 3 -1 11 -5 18 -4 8 -11 5 -19 -8z"/>
<path d="M5462 1644 c3 -104 5 -118 22 -128 11 -6 43 -26 72 -43 l52 -33 76
43 76 42 0 118 0 117 -150 0 -151 0 3 -116z m163 66 c3 -5 17 -10 30 -10 29 0
41 -16 25 -35 -10 -12 -10 -15 0 -15 7 0 10 -6 7 -13 -3 -7 1 -21 9 -32 19
-26 18 -32 -16 -65 -41 -40 -95 -41 -139 -4 -27 22 -31 33 -31 73 0 51 20 80
70 100 33 13 38 13 45 1z"/>
<path d="M5620 1672 c0 -4 -10 -12 -22 -17 -18 -8 -23 -18 -23 -45 0 -34 1
-35 40 -37 22 0 30 1 18 4 -23 4 -31 27 -14 37 5 3 14 19 19 36 9 24 8 30 -4
30 -7 0 -14 -3 -14 -8z"/>
<path d="M2285 1340 c-11 -17 5 -32 21 -19 7 6 11 15 8 20 -7 12 -21 11 -29
-1z"/>
<path d="M3904 1339 c-10 -17 13 -36 27 -22 12 12 4 33 -11 33 -5 0 -12 -5
-16 -11z"/>
<path d="M5530 1335 c0 -8 7 -15 15 -15 8 0 15 7 15 15 0 8 -7 15 -15 15 -8 0
-15 -7 -15 -15z"/>
<path d="M2130 1255 c0 -69 3 -85 15 -85 10 0 15 11 15 35 0 32 2 35 30 35 28
0 30 -3 30 -35 0 -24 5 -35 15 -35 12 0 15 16 15 85 0 67 -3 85 -14 85 -9 0
-16 -12 -18 -32 -2 -28 -7 -33 -28 -33 -21 0 -26 5 -28 33 -2 20 -9 32 -18 32
-11 0 -14 -18 -14 -85z"/>
<path d="M2480 1255 c0 -67 3 -85 14 -85 11 0 16 14 18 48 2 34 7 47 18 47 10
0 17 -14 20 -45 3 -31 10 -45 20 -45 20 0 21 71 2 103 -10 18 -19 22 -38 18
-21 -6 -24 -3 -24 19 0 16 -6 25 -15 25 -12 0 -15 -16 -15 -85z"/>
<path d="M3750 1255 c0 -69 3 -85 15 -85 10 0 15 11 15 35 0 32 2 35 30 35 28
0 30 -3 30 -35 0 -24 5 -35 15 -35 12 0 15 16 15 85 0 69 -3 85 -15 85 -10 0
-15 -11 -15 -35 0 -32 -2 -35 -30 -35 -28 0 -30 3 -30 35 0 24 -5 35 -15 35
-12 0 -15 -16 -15 -85z"/>
<path d="M4100 1255 c0 -77 2 -86 18 -83 12 2 17 14 18 38 2 56 3 60 18 60 17
0 26 -22 26 -66 0 -24 5 -34 15 -34 11 0 15 12 15 48 0 59 -11 76 -47 77 -21
0 -28 5 -28 20 0 11 -8 21 -18 23 -15 3 -17 -6 -17 -83z"/>
<path d="M5380 1266 c0 -42 0 -79 0 -83 0 -5 6 -8 13 -8 6 0 14 16 17 35 4 29
9 35 30 35 22 0 25 -5 28 -38 2 -24 8 -37 15 -34 8 2 13 33 15 85 2 67 0 82
-12 82 -9 0 -16 -12 -18 -32 -2 -27 -8 -34 -30 -36 -24 -3 -27 1 -30 29 -2 18
-9 34 -15 37 -10 3 -13 -16 -13 -72z"/>
<path d="M5730 1255 c0 -67 3 -85 14 -85 11 0 16 14 18 47 2 35 7 49 20 51 14
3 17 -6 20 -45 2 -35 7 -48 18 -48 22 0 25 70 5 102 -13 19 -22 23 -41 19 -21
-6 -24 -3 -24 19 0 16 -6 25 -15 25 -12 0 -15 -16 -15 -85z"/>
<path d="M2284 1286 c-9 -25 1 -109 14 -114 9 -3 12 14 12 62 0 61 -13 87 -26
52z"/>
<path d="M2356 1281 c-38 -42 -5 -116 47 -103 20 5 20 4 8 -11 -7 -9 -20 -17
-27 -17 -8 0 -14 -7 -14 -16 0 -13 6 -15 27 -9 47 11 53 23 53 100 l0 73 -39
0 c-25 1 -45 -6 -55 -17z m59 -46 c0 -33 -28 -47 -39 -19 -10 25 3 56 22 52
11 -2 17 -13 17 -33z"/>
<path d="M3979 1279 c-38 -38 -9 -116 38 -104 18 4 24 2 21 -7 -3 -7 -14 -14
-26 -16 -30 -5 -28 -32 1 -32 48 0 62 22 62 100 l0 72 -39 3 c-27 1 -45 -4
-57 -16z m59 -47 c3 -26 0 -32 -16 -32 -25 0 -35 25 -21 51 15 28 33 18 37
-19z"/>
<path d="M5530 1235 c0 -51 3 -65 15 -65 12 0 15 14 15 65 0 51 -3 65 -15 65
-12 0 -15 -14 -15 -65z"/>
<path d="M5605 1284 c-18 -18 -20 -75 -3 -92 7 -7 23 -12 36 -12 30 0 24 -24
-6 -28 -12 -2 -22 -7 -22 -12 0 -33 77 -11 86 24 3 12 4 46 2 76 l-3 54 -37 2
c-23 2 -44 -3 -53 -12z m60 -33 c7 -24 -4 -51 -21 -51 -15 0 -29 43 -19 59 10
17 33 13 40 -8z"/>
<path d="M3902 1233 c2 -42 7 -58 17 -58 11 0 15 15 15 58 1 49 -2 57 -17 57
-16 0 -18 -8 -15 -57z"/>
<path d="M1817 1093 c-4 -3 -7 -42 -7 -85 0 -63 3 -78 15 -78 10 0 15 10 15
30 0 27 3 30 29 30 20 0 36 9 50 26 26 33 26 39 1 64 -20 20 -88 28 -103 13z
m78 -48 c0 -22 -31 -33 -47 -17 -17 17 -1 44 24 40 15 -2 23 -10 23 -23z"/>
<path d="M2202 1088 c-7 -7 -12 -17 -12 -24 0 -7 -6 -14 -12 -17 -10 -4 -10
-7 0 -18 6 -7 12 -32 12 -56 0 -32 4 -43 15 -43 11 0 15 12 15 45 0 31 5 47
15 51 8 4 15 10 15 15 0 5 -7 9 -15 9 -8 0 -15 4 -15 9 0 5 7 11 15 15 8 3 15
10 15 16 0 14 -33 13 -48 -2z"/>
<path d="M5057 1085 c-4 -9 -7 -48 -7 -86 0 -62 2 -69 20 -69 16 0 20 7 20 30
0 25 4 30 25 30 27 0 65 31 65 53 0 29 -27 49 -72 54 -36 4 -46 2 -51 -12z
m80 -26 c17 -17 4 -39 -23 -39 -19 0 -24 5 -24 25 0 27 26 35 47 14z"/>
<path d="M5460 1094 c-24 -7 -45 -61 -30 -79 8 -9 10 -29 7 -50 -5 -30 -3 -35
14 -35 16 0 19 7 19 44 0 33 5 46 18 51 16 6 16 8 -3 22 -14 11 -16 17 -7 20
6 3 12 11 12 19 0 14 -3 15 -30 8z"/>
<path d="M3430 1005 c0 -67 3 -85 14 -85 9 0 16 12 18 33 3 28 7 32 36 35 42
4 61 39 44 77 -10 22 -18 25 -62 25 l-50 0 0 -85z m87 39 c7 -18 -14 -35 -37
-31 -8 1 -16 12 -18 25 -3 18 1 22 23 22 14 0 28 -7 32 -16z"/>
<path d="M3807 1058 c-12 -21 -15 -34 -8 -36 6 -2 11 -26 11 -53 0 -37 4 -49
15 -49 11 0 15 12 15 45 0 31 5 47 18 54 16 10 16 12 -2 26 -17 13 -17 15 -3
21 24 9 21 24 -5 24 -15 0 -29 -11 -41 -32z"/>
<path d="M1962 1038 c-17 -17 -15 -83 2 -97 19 -16 78 -10 84 8 3 10 -1 12
-18 8 -25 -6 -50 1 -50 14 0 5 18 9 40 9 32 0 40 4 40 18 0 41 -69 69 -98 40z
m56 -26 c2 -7 -6 -12 -17 -12 -21 0 -27 11 -14 24 9 9 26 2 31 -12z"/>
<path d="M2080 990 c0 -47 3 -60 15 -60 10 0 15 10 15 29 0 39 9 61 25 61 7 0
15 7 19 15 4 12 -3 15 -34 15 l-40 0 0 -60z"/>
<path d="M2277 1032 c-38 -42 -6 -107 50 -100 65 7 63 110 -3 116 -20 2 -36
-3 -47 -16z m61 -36 c4 -36 -12 -54 -33 -36 -18 15 -20 41 -3 58 18 18 33 9
36 -22z"/>
<path d="M2400 990 c0 -47 3 -60 15 -60 11 0 15 11 15 41 0 32 4 42 20 46 35
9 24 33 -15 33 l-35 0 0 -60z"/>
<path d="M2490 989 c0 -52 2 -60 18 -57 12 2 17 13 18 39 1 20 4 42 8 48 14
22 36 -9 36 -50 0 -28 4 -39 15 -39 11 0 15 11 15 43 0 24 3 47 7 50 14 14 33
-17 33 -54 0 -28 4 -39 15 -39 11 0 15 12 15 48 0 26 -4 52 -8 58 -4 6 -43 11
-89 12 l-83 2 0 -61z"/>
<path d="M2706 1028 c-20 -28 -20 -48 0 -76 12 -18 24 -22 52 -20 19 2 37 9
40 16 3 8 -6 12 -29 10 -18 -2 -34 2 -36 10 -3 8 7 12 31 12 43 0 53 13 32 45
-21 33 -69 34 -90 3z m62 -16 c2 -7 -6 -12 -17 -12 -21 0 -27 11 -14 24 9 9
26 2 31 -12z"/>
<path d="M2830 990 c0 -47 3 -60 15 -60 11 0 15 11 15 41 0 32 4 42 20 46 35
9 24 33 -15 33 l-35 0 0 -60z"/>
<path d="M3588 1033 c-50 -59 -9 -131 62 -108 32 10 18 30 -18 27 -18 -2 -32
1 -32 7 0 6 15 11 34 11 42 0 51 12 35 42 -22 42 -55 50 -81 21z m52 -28 c0
-8 -9 -15 -20 -15 -20 0 -26 11 -13 23 12 13 33 7 33 -8z"/>
<path d="M3704 1041 c-2 -2 -4 -31 -4 -63 0 -45 3 -58 15 -58 10 0 15 11 15
35 0 24 8 41 27 60 15 14 26 25 23 26 -22 3 -72 3 -76 0z"/>
<path d="M3900 1028 c-38 -41 -14 -108 40 -108 39 0 64 37 55 80 -11 51 -60
65 -95 28z m58 -46 c3 -27 0 -32 -17 -32 -17 0 -21 6 -21 36 0 28 3 35 18 32
11 -2 18 -14 20 -36z"/>
<path d="M4025 1042 c-3 -3 -5 -32 -5 -64 0 -51 2 -59 18 -56 13 2 16 11 14
35 -3 24 3 37 25 57 15 14 26 26 23 27 -41 5 -70 6 -75 1z"/>
<path d="M4125 1040 c-2 -3 -5 -30 -6 -60 -3 -45 0 -56 13 -58 14 -3 17 7 20
45 2 35 7 48 18 48 11 0 16 -13 18 -47 2 -33 8 -48 17 -48 9 0 15 15 17 48 2
34 7 47 18 47 11 0 16 -13 18 -48 3 -39 6 -48 20 -45 9 2 16 7 15 11 -2 4 -3
29 -3 56 0 41 -3 51 -20 56 -12 4 -27 1 -35 -5 -8 -7 -20 -8 -27 -3 -14 9 -78
11 -83 3z"/>
<path d="M4340 1030 c-41 -41 -12 -113 43 -108 20 2 32 8 32 18 0 10 -8 14
-27 12 -14 -2 -29 2 -33 7 -4 7 8 11 34 11 37 0 41 3 41 24 0 25 -32 56 -57
56 -7 0 -22 -9 -33 -20z m55 -19 c3 -5 1 -13 -5 -16 -15 -9 -43 3 -35 15 8 13
32 13 40 1z"/>
<path d="M4465 1040 c-2 -3 -5 -30 -6 -60 -3 -45 0 -55 14 -58 14 -3 17 4 17
37 0 30 5 43 20 51 31 17 25 37 -11 36 -17 -1 -32 -3 -34 -6z"/>
<path d="M5207 1032 c-22 -24 -21 -65 1 -85 24 -22 82 -23 82 -2 0 11 -8 15
-26 13 -15 -2 -29 3 -31 10 -3 8 7 12 31 12 29 0 36 4 36 19 0 46 -62 67 -93
33z m53 -23 c0 -5 -7 -9 -15 -9 -15 0 -20 12 -9 23 8 8 24 -1 24 -14z"/>
<path d="M5330 990 c0 -47 3 -60 15 -60 11 0 15 11 15 41 0 32 4 42 20 46 35
9 24 33 -15 33 l-35 0 0 -60z"/>
<path d="M5526 1034 c-20 -20 -21 -78 -1 -94 22 -18 66 -15 82 6 31 42 6 104
-42 104 -13 0 -31 -7 -39 -16z m62 -37 c5 -27 -17 -50 -34 -36 -15 12 -19 41
-7 53 12 12 38 1 41 -17z"/>
<path d="M5650 989 c0 -46 3 -59 15 -59 11 0 15 11 15 39 0 31 4 41 20 46 34
11 24 33 -15 33 l-35 0 0 -59z"/>
<path d="M5746 1033 c-3 -8 -6 -35 -6 -59 0 -37 3 -44 20 -44 17 0 20 7 20 45
0 33 4 45 15 45 16 0 29 -36 23 -66 -2 -11 4 -20 15 -22 14 -3 17 4 17 43 0
39 3 46 18 43 12 -2 18 -15 20 -46 2 -28 8 -42 18 -42 18 0 20 95 2 107 -7 4
-45 9 -85 9 -55 1 -73 -2 -77 -13z"/>
<path d="M5961 1036 c-7 -8 -11 -32 -9 -53 3 -43 36 -67 71 -54 30 11 36 36 7
28 -12 -3 -28 -3 -36 0 -24 9 -5 23 32 23 38 0 43 13 18 48 -18 25 -65 30 -83
8z m59 -26 c0 -5 -6 -10 -14 -10 -8 0 -18 5 -21 10 -3 6 3 10 14 10 12 0 21
-4 21 -10z"/>
<path d="M6080 990 c0 -53 2 -60 20 -60 17 0 20 7 20 40 0 29 5 42 20 50 32
17 23 30 -20 30 l-40 0 0 -60z"/>
<path d="M2359 842 l-696 -2 -23 -49 -23 -50 23 -55 22 -56 699 0 699 0 26 51
25 51 -22 54 c-12 30 -24 55 -28 57 -3 1 -319 1 -702 -1z m-458 -52 c10 -6 19
-17 19 -25 0 -17 -26 -20 -35 -5 -3 6 -10 10 -16 10 -5 0 -9 -4 -9 -10 0 -5 6
-10 13 -10 7 0 24 -10 36 -21 22 -21 23 -21 17 -2 -4 12 -1 24 6 30 18 14 111
10 116 -5 3 -9 9 -8 25 3 28 20 33 19 58 -6 l22 -22 -6 24 c-9 34 7 57 26 40
11 -8 17 -9 22 -1 14 23 25 -4 25 -61 0 -46 -3 -59 -15 -59 -8 0 -15 6 -16 13
0 10 -2 10 -6 0 -2 -7 -11 -13 -19 -13 -8 0 -14 6 -14 13 0 9 -2 9 -8 0 -5 -7
-19 -13 -33 -12 -13 0 -39 0 -56 0 -31 0 -33 2 -35 37 l-1 37 -4 -38 c-3 -29
-8 -37 -21 -35 -12 3 -16 12 -14 30 1 15 -2 29 -8 33 -6 4 -10 -8 -10 -29 0
-25 -4 -36 -15 -36 -8 0 -15 8 -15 18 -1 16 -1 16 -11 0 -18 -31 -89 -20 -89
13 0 21 11 24 27 8 6 -6 17 -9 25 -7 8 3 1 10 -17 19 -35 17 -44 47 -19 66 22
16 29 16 55 3z m423 0 c14 -5 26 -17 26 -26 0 -13 3 -14 15 -4 16 13 20 8 28
-40 l4 -25 2 26 c1 34 28 59 37 35 5 -14 8 -14 21 0 9 8 22 13 29 10 8 -3 21
-9 29 -12 11 -5 14 0 13 17 -2 16 2 24 12 24 11 0 16 -15 18 -62 3 -52 0 -63
-12 -63 -9 0 -16 5 -16 11 0 6 -9 4 -21 -5 -22 -15 -48 -11 -61 8 -5 7 -8 7
-8 -1 0 -19 -67 -16 -78 3 -8 14 -10 14 -21 0 -8 -9 -29 -16 -47 -16 l-34 0 0
58 c0 76 8 84 64 62z m317 -41 c6 -11 11 -10 27 4 23 21 36 21 52 2 12 -14 15
-14 31 1 16 14 23 15 45 5 19 -8 30 -9 40 0 41 34 83 -48 42 -83 -11 -10 -25
-15 -31 -11 -7 4 -32 7 -57 8 -40 0 -45 3 -44 22 0 12 -3 20 -8 17 -4 -3 -8
-14 -8 -25 0 -25 -54 -27 -69 -1 -10 16 -10 16 -11 0 0 -10 -7 -18 -15 -18
-10 0 -15 10 -15 29 0 17 -4 33 -10 36 -6 4 -10 -8 -10 -29 0 -25 -4 -36 -15
-36 -11 0 -15 11 -15 43 0 24 3 46 6 49 10 10 56 1 65 -13z"/>
<path d="M2290 760 c0 -5 7 -10 16 -10 8 0 12 5 9 10 -3 6 -10 10 -16 10 -5 0
-9 -4 -9 -10z"/>
<path d="M2510 720 c0 -5 5 -10 11 -10 5 0 7 5 4 10 -3 6 -8 10 -11 10 -2 0
-4 -4 -4 -10z"/>
<path d="M2290 710 c0 -5 7 -10 15 -10 8 0 15 5 15 10 0 6 -7 10 -15 10 -8 0
-15 -4 -15 -10z"/>
<path d="M2805 720 c3 -5 11 -10 16 -10 6 0 7 5 4 10 -3 6 -11 10 -16 10 -6 0
-7 -4 -4 -10z"/>
<path d="M3255 785 l-25 -55 23 -55 22 -55 710 0 710 0 22 54 22 55 -24 55
-25 56 -705 0 -706 0 -24 -55z m633 -12 c2 -9 -7 -13 -27 -13 -35 0 -42 -15
-11 -23 11 -3 20 -10 20 -16 0 -6 -9 -11 -20 -11 -15 0 -20 -7 -20 -26 0 -19
-5 -25 -17 -22 -20 3 -29 61 -18 105 5 21 11 24 47 21 23 -2 43 -9 46 -15z
m73 -43 l16 -55 4 55 c3 41 8 55 19 55 11 0 16 -13 18 -47 2 -32 8 -48 17 -48
7 0 20 -3 29 -6 13 -5 16 3 16 51 0 70 23 72 28 2 3 -41 6 -46 29 -49 15 -2
28 -9 31 -15 5 -16 -206 -16 -226 0 -9 7 -20 6 -37 -3 -32 -17 -40 -8 -26 30
6 16 16 44 22 60 17 46 40 34 60 -30z"/>
<path d="M4882 792 c-12 -27 -22 -52 -22 -57 0 -5 10 -30 22 -57 l22 -48 707
0 708 0 21 46 c25 58 25 64 0 120 l-20 44 -708 0 -708 0 -22 -48z m530 -3 c14
-8 23 -8 31 0 15 15 60 14 75 -1 9 -9 15 -9 24 0 18 18 56 14 78 -8 l20 -20 0
21 c0 12 5 19 13 17 15 -6 17 -127 2 -130 -5 -2 -12 17 -15 42 -4 36 -7 41
-13 23 -4 -12 -5 -33 -1 -47 9 -39 -24 -31 -40 9 -7 16 -9 17 -13 5 -14 -44
-12 -43 -29 -29 -8 7 -13 21 -11 31 6 20 -8 34 -18 18 -3 -5 -15 -10 -26 -10
-12 0 -19 -7 -19 -18 0 -25 -11 -34 -26 -21 -9 7 -19 7 -34 -1 -26 -14 -57 -5
-71 22 -11 20 -9 21 22 15 l34 -7 -27 21 c-56 42 -18 101 44 68z m312 -16 c14
-25 15 -26 16 -7 0 21 22 38 34 27 10 -10 7 -121 -3 -128 -10 -6 -41 21 -41
36 0 5 -5 9 -11 9 -5 0 -7 -5 -4 -10 8 -13 -14 -42 -26 -34 -10 6 -12 117 -2
127 12 13 22 7 37 -20z m144 15 c7 -7 12 -33 12 -60 0 -56 -25 -78 -66 -59
-20 9 -24 18 -24 59 0 52 12 72 45 72 12 0 26 -5 33 -12z"/>
<path d="M5378 753 c7 -3 16 -2 19 1 4 3 -2 6 -13 5 -11 0 -14 -3 -6 -6z"/>
<path d="M5470 750 c0 -5 5 -10 10 -10 6 0 10 5 10 10 0 6 -4 10 -10 10 -5 0
-10 -4 -10 -10z"/>
<path d="M5415 730 c3 -5 10 -10 16 -10 5 0 9 5 9 10 0 6 -7 10 -16 10 -8 0
-12 -4 -9 -10z"/>
<path d="M5820 730 c0 -22 5 -30 18 -29 10 0 12 3 5 6 -15 6 -17 33 -3 33 6 0
10 5 10 10 0 6 -7 10 -15 10 -10 0 -15 -10 -15 -30z"/>
<path d="M2180 505 c0 -30 5 -55 10 -55 6 0 10 9 10 20 0 13 7 20 20 20 26 0
26 16 -1 23 -27 7 -15 27 17 27 13 0 24 5 24 10 0 6 -18 10 -40 10 l-40 0 0
-55z"/>
<path d="M2282 536 c-6 -13 -14 -41 -18 -63 -5 -31 -4 -36 7 -25 17 15 51 16
67 0 16 -16 15 -7 -4 58 -17 58 -34 68 -52 30z m28 -50 c-14 -14 -24 0 -16 21
6 15 8 15 16 3 6 -9 5 -19 0 -24z"/>
<path d="M2372 503 c3 -56 4 -58 32 -61 16 -2 33 1 39 7 8 8 7 11 -3 12 -8 1
-22 2 -30 3 -11 1 -16 15 -18 49 -2 26 -8 47 -13 47 -6 0 -9 -24 -7 -57z"/>
<path d="M2462 503 l3 -58 33 0 c17 0 32 5 32 10 0 6 -10 10 -23 10 -19 0 -22
6 -25 48 -2 26 -8 47 -13 47 -6 0 -9 -24 -7 -57z"/>
<path d="M5362 498 c-15 -15 -16 -38 -2 -38 6 0 19 6 30 12 14 9 22 10 31 1 8
-8 1 -23 -30 -56 -23 -24 -41 -49 -41 -56 0 -7 21 -11 55 -11 58 0 76 17 24
22 l-31 3 31 39 c17 21 31 45 31 52 0 36 -71 59 -98 32z"/>
<path d="M5502 498 c-34 -41 -20 -141 20 -151 27 -7 64 7 72 28 11 30 6 90
-10 113 -17 24 -65 30 -82 10z m62 -34 c11 -28 6 -71 -9 -84 -23 -19 -35 -2
-35 51 0 41 3 49 19 49 10 0 22 -7 25 -16z"/>
<path d="M5632 498 c-15 -15 -16 -38 -2 -38 6 0 19 6 30 12 14 9 23 9 30 2 8
-8 0 -24 -29 -58 -23 -26 -41 -51 -41 -57 0 -5 25 -9 55 -9 30 0 55 5 55 10 0
6 -11 10 -25 10 -14 0 -25 5 -25 11 0 6 11 24 25 41 14 16 25 36 25 43 0 37
-70 61 -98 33z"/>
<path d="M5773 503 c-7 -2 -13 -13 -13 -24 0 -20 15 -26 25 -9 9 14 45 13 45
-1 0 -7 -16 -31 -35 -55 -19 -23 -35 -47 -35 -53 0 -6 21 -11 50 -11 28 0 50
5 50 10 0 6 -11 10 -25 10 -14 0 -25 6 -25 13 0 8 11 24 25 37 27 25 32 59 13
78 -12 12 -52 15 -75 5z"/>
<path d="M3760 479 c-15 -26 -5 -37 20 -21 25 15 50 16 50 1 0 -6 -18 -33 -40
-59 -22 -26 -40 -51 -40 -54 0 -3 25 -6 55 -6 30 0 55 5 55 10 0 6 -11 10 -25
10 -14 0 -25 3 -25 7 0 3 11 21 25 39 42 55 29 94 -32 94 -23 0 -36 -6 -43
-21z"/>
<path d="M3902 488 c-7 -7 -12 -38 -12 -69 0 -48 4 -60 22 -73 30 -21 44 -20
68 4 27 27 28 110 2 133 -22 20 -63 22 -80 5z m68 -67 c0 -44 -13 -66 -34 -58
-20 8 -23 103 -3 110 21 8 37 -14 37 -52z"/>
<path d="M4030 481 c-5 -11 -10 -22 -10 -25 0 -11 24 -6 40 9 15 13 19 13 29
2 9 -12 3 -24 -29 -63 -22 -27 -40 -52 -40 -56 0 -5 25 -8 55 -8 30 0 55 5 55
10 0 6 -13 10 -30 10 -16 0 -30 4 -30 8 0 5 14 21 30 37 49 47 36 95 -27 95
-22 0 -36 -6 -43 -19z"/>
<path d="M4157 493 c-12 -11 -8 -23 8 -23 12 0 15 -14 15 -65 0 -51 3 -65 15
-65 12 0 15 16 15 80 0 77 -1 80 -23 80 -13 0 -27 -3 -30 -7z"/>
<path d="M2223 403 c-14 -5 -18 -33 -5 -33 4 0 13 5 19 11 24 24 22 -11 -2
-39 -34 -40 -32 -52 10 -52 19 0 35 5 35 10 0 6 -9 10 -21 10 l-20 0 20 29
c12 16 21 34 21 40 0 9 -33 33 -42 30 -2 0 -9 -3 -15 -6z"/>
<path d="M2311 396 c-7 -8 -11 -34 -9 -58 3 -40 5 -43 33 -43 28 0 30 3 33 43
3 44 -10 72 -33 72 -7 0 -18 -6 -24 -14z m39 -52 c0 -24 -5 -34 -15 -34 -10 0
-15 10 -15 33 0 19 3 37 6 40 13 13 24 -5 24 -39z"/>
<path d="M2400 395 c-16 -20 -5 -32 14 -16 27 23 28 -8 2 -40 -34 -40 -33 -49
9 -49 19 0 35 5 35 10 0 6 -10 10 -22 10 l-21 0 21 23 c25 26 28 47 10 65 -16
16 -33 15 -48 -3z"/>
<path d="M2490 399 c-12 -8 -12 -12 -2 -16 7 -3 12 -23 12 -49 0 -24 5 -44 10
-44 12 0 14 107 2 114 -4 2 -14 0 -22 -5z"/>
</g>
</svg>
